# xmcd
#
# Track frame offsets:
# 150
# 24747
# 51495
# 71650
# 94155
# 118685
# 137215
# 162142
# 188335
# 210587
# 231067
# 244635
# 263272
# 286870
# 309819
#
# Disc length: 4382 seconds
#
#
# Revision: 3
# Processed by: cddbd v1.5PL3 Copyright (c) Steve Scherf et al.
# Submitted via: FreeRIP 2.70 
#
DISCID=c5111c0f
DTITLE=Teddy Pendergrass - The Best of Teddy Pendergrass
DYEAR=1982
DGENRE=Soul
TTITLE0=Close The Door
TTITLE1=Turn Off The Lights
TTITLE2=The Whole Town Is Laughing At Me
TTITLE3=Love TKO
TTITLE4=Take Me In Your Arms Tonight
TTITLE5=You Can't Hide From Yourself
TTITLE6=Feel The Fire
TTITLE7=Come Go With Me
TTITLE8=When Somebody Loves You Back
TTITLE9=Is It Still Good To Ya?
TTITLE10=I Can't Live Without Your Love
TTITLE11=Heaven Only Knows
TTITLE12=Be Sure
TTITLE13=Only You
TTITLE14=Life Is A Song Worth Singing
EXTD=
EXTT0=
EXTT1=
EXTT2=
EXTT3=
EXTT4=
EXTT5=
EXTT6=
EXTT7=
EXTT8=
EXTT9=
EXTT10=
EXTT11=
EXTT12=
EXTT13=
EXTT14=
PLAYORDER=
